<svg xmlns="http://www.w3.org/2000/svg" viewBox="0 0 1720 970" width="1720" height="970" role="img" aria-label="Siyaya Digital">
  <defs>
    <linearGradient id="wordGrad" x1="0" y1="0" x2="0" y2="1">
      <stop offset="0" stop-color="#ffffff"/>
      <stop offset="1" stop-color="#c6d2ea"/>
    </linearGradient>
    <filter id="headGlow" x="-120%" y="-120%" width="340%" height="340%">
      <feGaussianBlur stdDeviation="7" result="b"/>
      <feMerge><feMergeNode in="b"/><feMergeNode in="SourceGraphic"/></feMerge>
    </filter>
  </defs><text x="70" y="600" font-family="'Helvetica Neue',Arial,'Liberation Sans',system-ui,sans-serif" font-style="italic" font-weight="800" font-size="360" letter-spacing="-6" fill="url(#wordGrad)" transform="skewX(-9)">SIYAYA</text><text x="478" y="728" font-family="ui-monospace,'SF Mono','JetBrains Mono',Menlo,Consolas,monospace" font-weight="700" font-size="104" letter-spacing="40" text-anchor="middle"><tspan fill="#2dd4bf">D</tspan><tspan fill="#22d3ee">I</tspan><tspan fill="#3b82f6">G</tspan><tspan fill="#6366f1">I</tspan><tspan fill="#8b5cf6">T</tspan><tspan fill="#c026d3">A</tspan><tspan fill="#ec4899">L</tspan></text><g><rect x="1176.9" y="757.2" width="40.0" height="40.0" rx="10.4" fill="rgb(255,255,255)" filter="url(#headGlow)" transform="rotate(0 1196.9 777.2)"/>
<rect x="1245.4" y="787.3" width="27.5" height="27.5" rx="7.2" fill="rgb(245,163,23)" transform="rotate(0 1259.1 801.0)"/>
<rect x="1310.5" y="795.9" width="28.0" height="28.0" rx="7.3" fill="rgb(247,133,17)" transform="rotate(0 1324.5 809.9)"/>
<rect x="1375.9" y="789.3" width="28.5" height="28.5" rx="7.4" fill="rgb(248,108,29)" transform="rotate(0 1390.1 803.6)"/>
<rect x="1438.6" y="767.7" width="29.0" height="29.0" rx="7.5" fill="rgb(243,86,50)" transform="rotate(0 1453.1 782.2)"/>
<rect x="1496.0" y="732.0" width="29.4" height="29.4" rx="7.6" fill="rgb(239,68,74)" transform="rotate(0 1510.7 746.7)"/>
<rect x="1545.5" y="683.8" width="29.8" height="29.8" rx="7.8" fill="rgb(238,70,102)" transform="rotate(0 1560.4 698.7)"/>
<rect x="1584.9" y="625.2" width="30.2" height="30.2" rx="7.9" fill="rgb(237,71,130)" transform="rotate(0 1600.0 640.3)"/>
<rect x="1612.6" y="558.7" width="30.6" height="30.6" rx="7.9" fill="rgb(235,72,158)" transform="rotate(0 1627.8 573.9)"/>
<rect x="1627.2" y="487.2" width="30.9" height="30.9" rx="8.0" fill="rgb(229,71,184)" transform="rotate(0 1642.7 502.7)"/>
<rect x="1628.2" y="413.9" width="31.2" height="31.2" rx="8.1" fill="rgb(223,71,210)" transform="rotate(0 1643.8 429.5)"/>
<rect x="1615.5" y="342.0" width="31.4" height="31.4" rx="8.2" fill="rgb(218,70,236)" transform="rotate(0 1631.2 357.7)"/>
<rect x="1589.7" y="274.5" width="31.6" height="31.6" rx="8.2" fill="rgb(204,74,241)" transform="rotate(0 1605.5 290.3)"/>
<rect x="1551.9" y="214.5" width="31.7" height="31.7" rx="8.2" fill="rgb(189,79,244)" transform="rotate(0 1567.7 230.4)"/>
<rect x="1503.7" y="164.6" width="31.8" height="31.8" rx="8.3" fill="rgb(174,83,246)" transform="rotate(0 1519.6 180.5)"/>
<rect x="1447.2" y="126.9" width="31.8" height="31.8" rx="8.3" fill="rgb(163,86,247)" transform="rotate(0 1463.1 142.8)"/>
<rect x="1385.0" y="103.1" width="31.8" height="31.8" rx="8.3" fill="rgb(155,88,247)" transform="rotate(0 1400.9 119.0)"/>
<rect x="1319.6" y="94.2" width="31.7" height="31.7" rx="8.2" fill="rgb(147,90,246)" transform="rotate(0 1335.5 110.1)"/>
<rect x="1254.1" y="100.6" width="31.6" height="31.6" rx="8.2" fill="rgb(139,92,246)" transform="rotate(0 1269.9 116.4)"/>
<rect x="1191.2" y="122.1" width="31.4" height="31.4" rx="8.2" fill="rgb(126,95,244)" transform="rotate(0 1206.9 137.8)"/>
<rect x="1133.7" y="157.7" width="31.2" height="31.2" rx="8.1" fill="rgb(112,99,243)" transform="rotate(0 1149.3 173.3)"/>
<rect x="1084.2" y="205.9" width="30.9" height="30.9" rx="8.0" fill="rgb(99,102,241)" transform="rotate(0 1099.6 221.3)"/>
<rect x="1044.7" y="264.5" width="30.6" height="30.6" rx="7.9" fill="rgb(86,111,243)" transform="rotate(0 1060.0 279.7)"/>
<rect x="1017.1" y="330.9" width="30.2" height="30.2" rx="7.9" fill="rgb(72,121,244)" transform="rotate(0 1032.2 346.1)"/>
<rect x="1002.4" y="402.4" width="29.8" height="29.8" rx="7.8" fill="rgb(59,130,246)" transform="rotate(0 1017.3 417.3)"/>
<rect x="1001.5" y="475.8" width="29.4" height="29.4" rx="7.6" fill="rgb(51,157,243)" transform="rotate(0 1016.2 490.5)"/>
<rect x="1014.3" y="547.9" width="29.0" height="29.0" rx="7.5" fill="rgb(42,184,241)" transform="rotate(0 1028.8 562.3)"/>
<rect x="1040.3" y="615.4" width="28.5" height="28.5" rx="7.4" fill="rgb(34,211,238)" transform="rotate(0 1054.5 629.7)"/>
<rect x="1078.3" y="675.6" width="28.0" height="28.0" rx="7.3" fill="rgb(39,211,216)" transform="rotate(0 1092.3 689.6)"/>
<rect x="1126.7" y="725.8" width="27.5" height="27.5" rx="7.2" fill="rgb(44,212,193)" transform="rotate(0 1140.4 739.5)"/>
</g></svg>